<?xml version="1.0" encoding="UTF-8" standalone="no"?>
<svg width="44px" height="55px" viewBox="0 0 44 55" version="1.1" xmlns="http://www.w3.org/2000/svg" xmlns:xlink="http://www.w3.org/1999/xlink">
    <!-- Generator: Sketch 41.2 (35397) - http://www.bohemiancoding.com/sketch -->
    <title>Shape</title>
    <desc>Created with Sketch.</desc>
    <defs></defs>
    <g id="Page-1" stroke="none" stroke-width="1" fill="none" fill-rule="evenodd">
        <g id="Group" transform="translate(22.100000, 26.600000) scale(1, -1) translate(-22.100000, -26.600000) translate(0.100000, -0.900000)" fill="#243994">
            <path d="M12.1,51.5 C1.7,46.3 -2.4,36.1 1.4,25 C3.3,19.4 11.3,8.8 17.3,3.8 L21.9,0 L26.5,3.8 C32.5,8.8 40.5,19.4 42.4,25 C45,32.7 44,39.4 39.3,45.7 C36.1,50.1 27.7,54.1 21.9,54.1 C18.9,54.1 15.4,53.2 12.1,51.5 Z M29.2,43.1 C37.2,36.8 32.9,24.1 22.7,24.1 C17.7,24.1 14,25.9 12.3,29.2 C9.7,34.3 10.9,39.8 15.3,43.3 C18.3,45.8 25.9,45.7 29.2,43.1 Z" id="Shape"></path>
        </g>
    </g>
</svg>